<svg width="16" height="16" viewBox="0 0 16 16" fill="none" xmlns="http://www.w3.org/2000/svg">
<path fill-rule="evenodd" clip-rule="evenodd" d="M2.70347 2.70372C3.04729 2.3599 3.51361 2.16675 3.99984 2.16675H6.6665C6.94265 2.16675 7.1665 2.39061 7.1665 2.66675C7.1665 2.94289 6.94265 3.16675 6.6665 3.16675H3.99984C3.77882 3.16675 3.56686 3.25455 3.41058 3.41083C3.2543 3.56711 3.1665 3.77907 3.1665 4.00008V12.0001C3.1665 12.2211 3.2543 12.4331 3.41058 12.5893C3.56686 12.7456 3.77882 12.8334 3.99984 12.8334H11.9998C12.2208 12.8334 12.4328 12.7456 12.5891 12.5893C12.7454 12.4331 12.8332 12.2211 12.8332 12.0001V9.33341C12.8332 9.05727 13.057 8.83341 13.3332 8.83341C13.6093 8.83341 13.8332 9.05727 13.8332 9.33341V12.0001C13.8332 12.4863 13.64 12.9526 13.2962 13.2964C12.9524 13.6403 12.4861 13.8334 11.9998 13.8334H3.99984C3.51361 13.8334 3.04729 13.6403 2.70347 13.2964C2.35966 12.9526 2.1665 12.4863 2.1665 12.0001V4.00008C2.1665 3.51385 2.35966 3.04754 2.70347 2.70372ZM9.49984 2.66675C9.49984 2.39061 9.72369 2.16675 9.99984 2.16675H13.3332C13.6093 2.16675 13.8332 2.39061 13.8332 2.66675V6.00008C13.8332 6.27622 13.6093 6.50008 13.3332 6.50008C13.057 6.50008 12.8332 6.27622 12.8332 6.00008V3.87386L8.35339 8.35363C8.15813 8.5489 7.84155 8.5489 7.64628 8.35363C7.45102 8.15837 7.45102 7.84179 7.64628 7.64653L12.1261 3.16675H9.99984C9.72369 3.16675 9.49984 2.94289 9.49984 2.66675Z" fill="white"/>
</svg>
